<?xml version="1.0" encoding="UTF-8" standalone="no"?><!DOCTYPE svg PUBLIC "-//W3C//DTD SVG 1.1//EN" "http://www.w3.org/Graphics/SVG/1.1/DTD/svg11.dtd"><svg width="100%" height="100%" viewBox="0 0 2956 423" version="1.1" xmlns="http://www.w3.org/2000/svg" xmlns:xlink="http://www.w3.org/1999/xlink" xml:space="preserve" xmlns:serif="http://www.serif.com/" style="fill-rule:evenodd;clip-rule:evenodd;stroke-linejoin:round;stroke-miterlimit:2;"><path d="M2942.69,262.972l-10.921,-70.861l-22.985,-12.757c-576.231,-269.772 -1141.86,-135.158 -1445.46,-6.718l-31.265,89.685l1510.63,0.651Z" style="fill:#fff;"/><path d="M2942.67,315.611l-1510.63,-0.651c-17.044,-0.007 -33.029,-8.266 -42.897,-22.162c-9.867,-13.897 -12.396,-31.711 -6.786,-47.805l31.266,-89.685c4.895,-14.042 15.501,-25.358 29.196,-31.151c312.601,-132.247 894.986,-270.242 1488.29,7.524c1.094,0.512 2.17,1.062 3.226,1.648l22.985,12.757c14.226,7.896 24.001,21.927 26.48,38.007l10.921,70.861c2.34,15.186 -2.071,30.636 -12.077,42.296c-10.005,11.661 -24.606,18.368 -39.971,18.361Zm0.023,-52.639l-10.921,-70.861l-22.985,-12.757c-576.231,-269.772 -1141.86,-135.158 -1445.46,-6.718l-31.265,89.685l1510.63,0.651Z" style="fill:#224563;"/></svg>