<?xml version="1.0" encoding="UTF-8" standalone="no"?><!DOCTYPE svg PUBLIC "-//W3C//DTD SVG 1.1//EN" "http://www.w3.org/Graphics/SVG/1.1/DTD/svg11.dtd"><svg width="100%" height="100%" viewBox="0 0 316 59" version="1.1" xmlns="http://www.w3.org/2000/svg" xmlns:xlink="http://www.w3.org/1999/xlink" xml:space="preserve" xmlns:serif="http://www.serif.com/" style="fill-rule:evenodd;clip-rule:evenodd;stroke-linecap:round;stroke-linejoin:round;stroke-miterlimit:1.5;"><path d="M1.004,38.601l0.004,-37.559l25.196,0l3.052,17.573l3.037,-17.596l25.007,-0.015l0,27.689l9.217,-27.643l23.837,0l11.204,28.958l8.325,-10.736l-13.154,-18.21l20.853,-0.006l3.913,7.48l4.178,-7.494l20.361,0l-14.46,17.573l15.032,20.04l-21.543,-0.023l-4.444,-8.186l-4.853,8.124l-29.96,0.024l-1.995,-5.3l-10.955,0l-2.113,5.314l-31.729,-0.023l0.093,-22.342l-4.468,22.365l-13.951,0l-5.028,-22.353l-0.011,22.393l-14.645,-0.047Zm81.557,-16.083l-7.992,0l3.786,-10.028l4.206,10.028" style="fill:#e62828;stroke:#fff;stroke-width:2.01px;"/><path d="M180.954,4.19l42.75,0l-42.75,0l-7.578,33.747l6.968,-31.181l41.634,0m-42.318,2.875l40.391,-0m-40.924,2.564l39.209,0m-39.898,2.834l15.942,-0m-16.401,2.757l36.755,-0m-37.444,2.603l35.713,0m-35.943,1.991l34.598,0m-35.441,2.068l34.158,0m-18.719,2.144l-15.515,0m14.791,2.987l-15.71,-0m15.019,2.757l-15.632,-0m14.905,2.833l-15.441,0m14.786,2.757l-15.245,-0" style="fill:none;stroke:#c4c4c4;stroke-width:3.35px;"/><path d="M238.548,15.047l3.446,22.821l16.158,-0m-1.072,-5.667l-45.871,0m14.321,3.063l-16.235,0m14.703,2.834l-16.311,-0m28.104,-19.988l-14.626,0m13.018,2.834l-15.01,-0m13.249,2.986l-15.469,0m38.749,2.834l-40.511,-0m40.894,2.68l-42.502,0m-6.662,8.883l23.816,-34.46l19.604,-0m1.072,2.91l-22.423,-0m22.959,2.757l-24.811,-0m25.271,3.063l-27.339,-0m28.028,2.527l-29.713,-0m34.002,19.91l-15.824,0m13.067,-11.104l-14.321,0m13.785,-3.063l-14.321,0m13.861,-2.757l-14.167,0" style="fill:none;stroke:#c4c4c4;stroke-width:3.35px;"/><path d="M137.943,20.853l20.958,-0.04l3.809,7.413l4.188,-7.365l19.398,0.037l-13.748,18.004l14.68,18.687l-20.806,-0l-4.708,-8.227l-4.441,8.24l-20.686,-0.02l14.989,-18.667l-13.633,-18.062Z" style="fill:#e62828;stroke:#fff;stroke-width:2.01px;"/><path d="M284.103,4.174l-17.997,0l-7.553,33.8m55.186,-33.876l-14.703,-0l-3.627,16.876l-16.819,0.049l9.801,16.846l17.384,0m-32.624,0.09l-14.598,0.015m54.573,-31.196l-14.666,-0m14.207,2.986l-14.849,0m14.083,2.757l-14.676,0m13.91,2.757l-14.51,0.037m13.744,2.95l-14.378,-0m13.919,2.68l-14.501,0.029m13.965,3.034l-29.047,0m28.204,2.681l-26.645,-0m25.956,2.833l-24.307,-0m23.618,2.91l-21.925,-0m21.159,2.757l-19.555,-0m-0.891,-28.258l-20.451,0m21.906,2.833l-22.539,0m23.917,2.834l-24.55,-0m26.158,2.757l-26.774,-0m28.306,2.833l-28.939,0m15.606,2.834l-16.234,-0.025m13.715,2.782l-14.337,-0m13.724,2.91l-14.374,-0m13.915,2.91l-14.565,-0m13.799,2.833l-14.432,-0m13.666,2.833l-14.3,0.001" style="fill:none;stroke:#c4c4c4;stroke-width:3.35px;"/></svg>