<?xml version="1.0" encoding="UTF-8" standalone="no"?><!DOCTYPE svg PUBLIC "-//W3C//DTD SVG 1.1//EN" "http://www.w3.org/Graphics/SVG/1.1/DTD/svg11.dtd"><svg width="100%" height="100%" viewBox="0 0 2956 507" version="1.1" xmlns="http://www.w3.org/2000/svg" xmlns:xlink="http://www.w3.org/1999/xlink" xml:space="preserve" xmlns:serif="http://www.serif.com/" style="fill-rule:evenodd;clip-rule:evenodd;stroke-linecap:round;stroke-linejoin:round;stroke-miterlimit:1.5;"><path d="M1615.57,289.279l1349.97,0" style="fill:none;stroke:#224563;stroke-width:60.78px;"/><path d="M1656.3,306.788l293.972,116.754" style="fill:none;stroke:#224563;stroke-width:60.78px;"/><path d="M1954.98,426.866l569.076,17.819" style="fill:none;stroke:#224563;stroke-width:60.78px;"/><path d="M2528.94,441.194l423.66,-104.997" style="fill:none;stroke:#224563;stroke-width:60.78px;"/><path d="M2942.69,262.972l-10.921,-70.861l-22.985,-12.757c-576.231,-269.772 -1141.86,-135.158 -1445.46,-6.718l-31.265,89.685l1510.63,0.651Z" style="fill:none;"/><path d="M2935.84,318.673l-1190.81,-4.41l221.044,81.248l572.354,17.22l397.408,-94.058Z" style="fill:#fff;stroke:#fff;stroke-width:17.61px;"/><path d="M2385.4,464.91l-15.315,42.42" style="fill:none;stroke:#224563;stroke-width:60.78px;"/><path d="M2357.78,382.582l-37.78,109.288" style="fill:none;stroke:#fff;stroke-width:60.78px;"/><path d="M2302.43,378.993l-37.781,109.287" style="fill:none;stroke:#fff;stroke-width:60.78px;"/><path d="M2245.33,377.378l-37.78,109.288" style="fill:none;stroke:#fff;stroke-width:60.78px;"/><path d="M2190.99,376.28l-37.781,109.287" style="fill:none;stroke:#fff;stroke-width:60.78px;"/><path d="M2157.38,372.899l-37.781,109.287" style="fill:none;stroke:#fff;stroke-width:60.78px;"/></svg>