<?xml version="1.0" encoding="UTF-8" standalone="no"?>
<!DOCTYPE svg PUBLIC "-//W3C//DTD SVG 1.1//EN" "http://www.w3.org/Graphics/SVG/1.1/DTD/svg11.dtd">
<svg width="522px" height="123px" version="1.1" xmlns="http://www.w3.org/2000/svg" xmlns:xlink="http://www.w3.org/1999/xlink" xml:space="preserve" xmlns:serif="http://www.serif.com/" style="fill-rule:evenodd;clip-rule:evenodd;stroke-linecap:round;stroke-linejoin:round;stroke-miterlimit:1.5;">
    <path d="M9.893,80.977L9.9,20.514L50.461,20.514L55.374,48.803L60.264,20.476L100.52,20.452L100.52,65.027L115.358,20.527L153.73,20.527L171.766,67.143L185.169,49.861L163.993,20.546L197.562,20.535L203.862,32.578L210.588,20.514L243.365,20.514L220.086,48.803L244.286,81.064L209.605,81.026L202.451,67.849L194.64,80.927L146.409,80.965L143.197,72.434L125.562,72.434L122.161,80.989L71.083,80.951L71.232,44.985L64.04,80.989L41.581,80.989L33.487,45.004L33.469,81.052L9.893,80.977ZM141.186,55.087L128.319,55.087L134.414,38.943L141.186,55.087" style="fill:rgb(224,27,35);stroke:white;stroke-width:2px;"/>
    <path d="M299.579,25.582L368.399,25.582L299.579,25.582L287.38,79.908L298.597,29.712L365.621,29.712M297.496,34.34L362.519,34.34M296.639,38.468L359.758,38.468M295.53,43.03L321.192,43.03M294.79,47.468L353.959,47.468M293.68,51.659L351.173,51.659M293.311,54.864L349.008,54.864M291.955,58.193L346.942,58.193M316.808,61.645L291.831,61.645M315.642,66.453L290.352,66.453M314.529,70.891L289.366,70.891M313.36,75.452L288.503,75.452M312.304,79.89L287.763,79.89" style="fill:none;stroke:white;stroke-width:2px;"/>
    <path d="M387.318,43.059L392.866,79.796L418.878,79.796M417.152,70.674L343.308,70.674M366.361,75.605L340.226,75.605M363.895,80.166L337.637,80.166M382.88,47.991L359.334,47.991M380.291,52.552L356.129,52.552M377.456,57.36L352.554,57.36M414.933,61.921L349.718,61.921M415.549,66.236L347.13,66.236M336.404,80.536L374.744,25.061L406.303,25.061M408.029,29.745L371.932,29.745M408.892,34.183L368.95,34.183M409.632,39.115L365.621,39.115M410.741,43.183L362.909,43.183M417.645,75.235L392.172,75.235M413.207,57.36L390.154,57.36M412.344,52.429L389.291,52.429M411.604,47.991L388.798,47.991" style="fill:none;stroke:white;stroke-width:2px;"/>
    <path d="M230.341,52.406L264.078,52.341L270.21,64.275L276.952,52.418L308.18,52.479L286.048,81.461L309.679,111.544L276.186,111.544L268.607,98.3L261.457,111.564L228.158,111.532L252.286,81.482L230.341,52.406Z" style="fill:rgb(224,27,35);stroke:white;stroke-width:2px;"/>
    <path d="M460.653,25.556L431.682,25.556L419.523,79.967M508.361,25.433L484.692,25.433L478.853,52.601L451.779,52.679L467.556,79.798L495.54,79.798M443.023,79.942L419.523,79.967M507.375,29.747L483.765,29.747M506.636,34.555L482.731,34.555M505.403,38.993L481.778,38.993M504.17,43.431L480.811,43.49M502.937,48.239L479.791,48.239M502.197,52.554L478.853,52.601M501.335,57.485L454.575,57.485M499.978,61.8L457.085,61.8M498.869,66.361L459.739,66.361M497.759,71.046L462.464,71.046M496.527,75.484L465.046,75.484M463.611,29.994L430.69,29.994M465.954,34.555L429.671,34.555M468.173,39.117L428.652,39.117M470.762,43.555L427.66,43.555M473.227,48.116L426.641,48.116M451.763,52.677L425.63,52.637M447.708,57.115L424.63,57.115M446.722,61.8L423.583,61.8M445.983,66.484L422.536,66.484M444.75,71.046L421.516,71.046M443.517,75.607L420.497,75.608" style="fill:none;stroke:white;stroke-width:2px;"/>
</svg>
