<?xml version="1.0" encoding="UTF-8" standalone="no"?><!DOCTYPE svg PUBLIC "-//W3C//DTD SVG 1.1//EN" "http://www.w3.org/Graphics/SVG/1.1/DTD/svg11.dtd"><svg width="100%" height="100%" viewBox="0 0 318 58" version="1.1" xmlns="http://www.w3.org/2000/svg" xmlns:xlink="http://www.w3.org/1999/xlink" xml:space="preserve" xmlns:serif="http://www.serif.com/" style="fill-rule:evenodd;clip-rule:evenodd;stroke-linecap:round;stroke-linejoin:round;stroke-miterlimit:1.5;"><path d="M0,38.005l0.004,-37.966l25.469,-0l3.086,17.763l3.07,-17.787l25.278,-0.015l-0,27.99l9.317,-27.943l24.094,0l11.326,29.272l8.416,-10.852l-13.297,-18.408l21.079,-0.007l3.956,7.562l4.223,-7.575l20.581,-0l-14.617,17.763l15.196,20.258l-21.777,-0.024l-4.492,-8.274l-4.905,8.212l-30.285,0.024l-2.017,-5.357l-11.074,-0l-2.136,5.371l-32.073,-0.023l0.094,-22.584l-4.516,22.607l-14.102,0l-5.083,-22.595l-0.011,22.636l-14.804,-0.048Zm82.442,-16.257l-8.08,-0l3.827,-10.137l4.253,10.137" style="fill:#fff;"/><path d="M181.901,3.221l43.213,0l-43.213,0l-7.661,34.113l7.044,-31.519l42.086,-0m-42.777,2.906l40.829,-0m-41.367,2.592l39.633,-0m-40.33,2.864l16.114,0m-16.579,2.787l37.154,-0m-37.85,2.632l36.1,-0m-36.332,2.012l34.973,0m-35.825,2.09l34.528,0m-18.922,2.168l-15.683,-0m14.951,3.019l-15.88,-0m15.181,2.787l-15.801,-0m15.067,2.864l-15.608,-0m14.945,2.787l-15.41,-0" style="fill:none;stroke:#c4c4c4;stroke-width:3.35px;"/><path d="M240.119,14.196l3.484,23.068l16.333,-0m-1.084,-5.728l-46.368,-0m14.476,3.096l-16.411,-0m14.863,2.864l-16.489,0m28.41,-20.204l-14.786,0m13.16,2.864l-15.172,0m13.392,3.019l-15.637,0m39.169,2.864l-40.95,0m41.337,2.71l-42.962,-0m-6.735,8.979l24.075,-34.834l19.816,0m1.084,2.942l-22.666,-0m23.208,2.786l-25.081,0m25.545,3.097l-27.635,-0m28.332,2.554l-30.035,0m34.37,20.127l-15.995,-0m13.208,-11.225l-14.475,0m13.933,-3.096l-14.475,-0m14.011,-2.787l-14.321,0" style="fill:none;stroke:#c4c4c4;stroke-width:3.35px;"/><path d="M138.424,20.065l21.185,-0.041l3.85,7.494l4.234,-7.446l19.608,0.039l-13.897,18.198l14.839,18.89l-21.031,-0l-4.759,-8.316l-4.49,8.328l-20.91,-0.02l15.151,-18.869l-13.78,-18.257Z" style="fill:#fff;"/><path d="M286.168,3.205l-18.191,-0l-7.636,34.166m55.784,-34.243l-14.862,-0l-3.667,17.059l-17,0.049l9.907,17.029l17.572,0m-32.977,0.09l-14.757,0.016m55.165,-31.534l-14.826,-0m14.361,3.019l-15.009,-0m14.235,2.787l-14.834,-0m14.06,2.786l-14.667,0.037m13.893,2.982l-14.534,0m14.07,2.71l-14.659,0.029m14.117,3.067l-29.362,-0m28.51,2.709l-26.934,0m26.238,2.864l-24.571,0m23.874,2.942l-22.163,0m21.389,2.787l-19.768,-0m-0.9,-28.564l-20.672,-0m22.142,2.864l-22.782,-0m24.176,2.864l-24.816,-0m26.441,2.787l-27.064,-0m28.613,2.864l-29.253,-0m15.775,2.864l-16.41,-0.025m13.864,2.812l-14.492,-0m13.872,2.941l-14.529,0m14.065,2.942l-14.723,-0m13.949,2.864l-14.589,0m13.815,2.864l-14.455,0.001" style="fill:none;stroke:#c4c4c4;stroke-width:3.35px;"/></svg>