<?xml version="1.0" encoding="UTF-8" standalone="no"?>
<!DOCTYPE svg PUBLIC "-//W3C//DTD SVG 1.1//EN" "http://www.w3.org/Graphics/SVG/1.1/DTD/svg11.dtd">
<svg width="140px" height="33px" version="1.1" xmlns="http://www.w3.org/2000/svg" xmlns:xlink="http://www.w3.org/1999/xlink" xml:space="preserve" xmlns:serif="http://www.serif.com/" style="fill-rule:evenodd;clip-rule:evenodd;stroke-linecap:round;stroke-linejoin:round;stroke-miterlimit:1.5;">
    <path d="M78.805,13.8L80.471,6.821L98.804,6.861L96.667,10.305L86.484,10.305L85.887,12.668L94.962,12.629L93.024,15.535L85.221,15.675L83.842,21.447L77.075,21.447L78.805,13.8Z" style="fill:rgb(179,179,179);stroke:white;stroke-width:0.54px;"/>
    <path d="M2.653,21.718L2.655,5.502L13.534,5.502L14.851,13.089L16.163,5.492L26.959,5.485L26.959,17.44L30.939,5.505L41.23,5.505L46.068,18.008L49.662,13.373L43.983,5.511L52.986,5.508L54.676,8.737L56.479,5.502L65.27,5.502L59.027,13.089L65.517,21.741L56.216,21.731L54.297,18.197L52.202,21.705L39.267,21.715L38.405,19.427L33.676,19.427L32.763,21.721L19.064,21.711L19.104,12.065L17.176,21.721L11.152,21.721L8.981,12.07L8.976,21.738L2.653,21.718ZM37.866,14.774L34.415,14.774L36.05,10.445L37.866,14.774" style="fill:rgb(224,27,35);stroke:white;stroke-width:0.54px;"/>
    <path d="M61.777,14.055L70.826,14.038L72.47,17.239L74.278,14.058L82.654,14.075L76.718,21.848L83.056,29.916L74.073,29.916L72.04,26.364L70.123,29.921L61.192,29.913L67.663,21.853L61.777,14.055Z" style="fill:rgb(224,27,35);stroke:white;stroke-width:0.54px;"/>
    <path d="M90.223,21.447L100.541,6.721L109.065,6.721L112.216,21.447L105.08,21.447L104.8,19.421L98.951,19.474L97.681,21.447L90.223,21.447ZM104.028,16.494L100.572,16.494L103.604,11.939L104.028,16.494Z" style="fill:rgb(179,179,179);stroke:white;stroke-width:0.54px;"/>
    <path d="M112.516,21.447L115.809,6.821L123.527,6.821L127.99,15.157L130.036,6.821L136.342,6.821L132.981,21.447L125.356,21.447L120.861,13.8L118.846,21.447L112.516,21.447Z" style="fill:rgb(179,179,179);stroke:white;stroke-width:0.54px;"/>
</svg>
