<?xml version="1.0" encoding="UTF-8" standalone="no"?>
<!DOCTYPE svg PUBLIC "-//W3C//DTD SVG 1.1//EN" "http://www.w3.org/Graphics/SVG/1.1/DTD/svg11.dtd">
<svg xmlns="http://www.w3.org/2000/svg" version="1.1" viewBox="0.00 0.00 88.00 64.00">
<path fill="#ffffff" d="
  M 88.00 34.65
  L 88.00 37.68
  Q 86.10 44.95 79.52 46.28
  C 75.27 47.13 70.44 44.89 68.43 40.91
  Q 65.10 34.32 70.29 28.53
  Q 70.63 28.15 70.63 27.65
  Q 70.70 20.32 70.55 13.55
  C 70.46 9.15 71.70 6.38 75.93 4.74
  Q 78.30 3.82 81.16 5.76
  C 85.02 8.37 84.52 11.36 84.51 15.25
  Q 84.50 21.50 84.48 27.71
  A 1.30 1.28 22.9 0 0 84.86 28.62
  Q 87.32 31.09 88.00 34.65
  Z
  M 73.49 30.29
  C 66.09 36.21 74.17 46.66 81.35 41.78
  Q 85.73 38.80 84.14 33.66
  C 83.68 32.18 82.55 31.09 81.45 30.06
  A 1.12 1.11 22.3 0 1 81.11 29.26
  L 81.11 12.05
  Q 81.11 8.60 77.69 8.16
  Q 77.22 8.10 76.76 8.24
  Q 74.13 9.09 74.11 11.85
  L 73.97 29.30
  Q 73.97 29.91 73.49 30.29
  Z"
/>
<path fill="#ffffff" d="
  M 0.00 50.88
  L 0.00 18.31
  Q 1.49 15.07 3.62 15.10
  Q 26.03 15.37 54.25 15.14
  Q 60.69 15.09 62.83 20.94
  C 64.11 24.46 62.29 27.85 58.40 27.58
  Q 56.29 27.43 54.31 27.55
  Q 53.48 27.59 53.91 28.30
  Q 55.53 30.95 56.82 34.11
  C 58.55 38.38 64.68 38.55 64.38 43.85
  Q 64.22 46.52 64.42 49.32
  C 64.66 52.57 61.97 54.75 58.85 54.19
  A 0.72 0.72 0.0 0 0 58.06 54.63
  C 56.40 58.74 51.87 61.33 47.94 58.31
  Q 46.04 56.86 45.26 54.78
  Q 45.06 54.24 44.48 54.24
  L 23.21 54.25
  Q 22.65 54.25 22.37 54.73
  C 21.87 55.58 21.54 56.44 20.83 57.16
  C 16.60 61.46 11.93 59.80 9.53 54.69
  A 0.81 0.81 0.0 0 0 8.83 54.23
  C 5.21 54.14 1.75 55.17 0.00 50.88
  Z
  M 42.99 24.78
  L 58.33 24.79
  Q 61.51 24.79 60.33 21.84
  Q 60.06 21.14 59.68 20.54
  A 5.85 5.84 -15.8 0 0 54.70 17.76
  L 4.25 17.76
  A 1.49 1.49 0.0 0 0 2.76 19.25
  L 2.76 50.11
  A 1.37 1.36 -89.8 0 0 4.11 51.48
  L 8.73 51.50
  Q 9.27 51.50 9.53 51.03
  C 9.98 50.22 10.17 49.23 10.85 48.54
  C 14.92 44.39 20.04 45.93 22.29 50.89
  Q 22.57 51.49 23.23 51.49
  L 44.51 51.49
  Q 45.09 51.49 45.29 50.95
  C 47.61 44.52 55.46 44.62 57.98 50.90
  Q 58.17 51.38 58.67 51.47
  Q 60.37 51.79 61.25 51.09
  Q 61.73 50.71 61.73 50.08
  L 61.73 43.04
  A 1.49 1.47 -69.8 0 0 61.22 41.92
  C 59.27 40.24 57.00 38.14 54.22 38.22
  Q 50.22 38.34 46.23 38.28
  A 4.03 4.03 0.0 0 1 42.26 34.25
  L 42.25 25.51
  Q 42.25 24.78 42.99 24.78
  Z
  M 45.00 35.26
  A 0.31 0.31 0.0 0 0 45.31 35.57
  L 54.17 35.60
  A 0.31 0.31 0.0 0 0 54.45 35.15
  L 50.87 27.70
  A 0.31 0.31 0.0 0 0 50.59 27.52
  L 45.32 27.53
  A 0.31 0.31 0.0 0 0 45.01 27.84
  L 45.00 35.26
  Z
  M 19.87 52.82
  A 3.96 3.96 0.0 0 0 15.91 48.86
  A 3.96 3.96 0.0 0 0 11.95 52.82
  A 3.96 3.96 0.0 0 0 15.91 56.78
  A 3.96 3.96 0.0 0 0 19.87 52.82
  Z
  M 55.58 52.84
  A 3.97 3.97 0.0 0 0 51.61 48.87
  A 3.97 3.97 0.0 0 0 47.64 52.84
  A 3.97 3.97 0.0 0 0 51.61 56.81
  A 3.97 3.97 0.0 0 0 55.58 52.84
  Z"
/>
<path fill="#ffffff" d="
  M 75.97 30.26
  L 75.96 18.95
  Q 75.96 18.60 76.30 18.60
  L 78.88 18.63
  A 0.38 0.38 0.0 0 1 79.26 19.01
  L 79.24 30.48
  Q 79.24 30.95 79.65 31.19
  Q 82.99 33.07 82.71 36.48
  C 82.07 44.19 69.40 41.46 73.00 33.62
  Q 73.75 32.01 75.25 31.35
  A 1.19 1.18 -11.7 0 0 75.97 30.26
  Z"
/>
<path fill="#ffffff" d="
  M 28.11 35.83
  A 3.59 3.59 0.0 0 1 24.52 39.42
  L 12.32 39.42
  A 3.59 3.59 0.0 0 1 8.73 35.83
  L 8.73 28.63
  A 3.59 3.59 0.0 0 1 12.32 25.04
  L 24.52 25.04
  A 3.59 3.59 0.0 0 1 28.11 28.63
  L 28.11 35.83
  Z
  M 25.4963 28.6624
  A 0.90 0.90 0.0 0 0 24.5978 27.7608
  L 12.2378 27.7392
  A 0.90 0.90 0.0 0 0 11.3363 28.6376
  L 11.3237 35.8176
  A 0.90 0.90 0.0 0 0 12.2222 36.7192
  L 24.5822 36.7408
  A 0.90 0.90 0.0 0 0 25.4837 35.8424
  L 25.4963 28.6624
  Z"
/>
</svg>
