<?xml version="1.0" encoding="UTF-8" standalone="no"?>
<!DOCTYPE svg PUBLIC "-//W3C//DTD SVG 1.1//EN" "http://www.w3.org/Graphics/SVG/1.1/DTD/svg11.dtd">
<svg xmlns="http://www.w3.org/2000/svg" version="1.1" viewBox="0.00 0.00 359.00 355.00">
<g stroke-width="2.00" fill="none" stroke-linecap="butt">
<path stroke="#8fa1b1" vector-effect="non-scaling-stroke" d="
  M 240.46 206.60
  Q 240.39 148.50 240.53 84.37
  Q 240.56 71.41 239.57 65.55
  Q 236.87 49.50 225.75 36.19
  Q 214.37 22.58 196.39 16.97
  Q 191.07 15.30 185.76 15.07
  Q 177.11 14.68 168.39 15.31
  Q 166.03 15.48 163.80 16.21
  C 159.97 17.47 156.13 18.49 152.51 20.28
  C 135.16 28.84 122.30 44.52 118.45 63.64
  Q 117.10 70.32 117.10 77.13
  Q 117.08 142.11 117.10 206.48
  Q 117.10 207.29 116.55 207.94
  Q 98.39 229.67 96.78 257.17
  Q 95.62 276.80 103.29 294.24
  Q 108.39 305.83 116.07 314.87
  Q 131.82 333.40 154.38 340.46
  Q 163.96 343.46 174.81 344.10
  Q 197.47 345.44 219.07 333.69
  Q 227.20 329.27 234.41 322.51
  Q 260.07 298.45 261.16 262.64
  Q 261.23 260.24 260.98 258.03
  C 260.47 253.57 260.30 249.13 259.36 244.74
  Q 255.06 224.51 240.91 207.80
  Q 240.46 207.28 240.46 206.60"
/>
<path stroke="#8fa1b1" vector-effect="non-scaling-stroke" d="
  M 209.84 218.39
  Q 209.68 150.37 209.76 78.75
  Q 209.77 72.22 209.29 70.27
  Q 205.41 54.27 190.94 47.73
  Q 181.53 43.48 170.73 46.30
  Q 161.54 48.70 155.01 56.59
  Q 147.77 65.35 147.76 77.56
  Q 147.73 148.82 147.76 218.48
  Q 147.76 219.00 147.41 219.38
  Q 143.77 223.37 140.24 227.62
  Q 129.30 240.79 127.63 255.65
  Q 126.09 269.36 130.82 280.73
  C 138.40 298.98 154.64 311.61 174.31 313.29
  Q 194.30 315.00 210.19 302.74
  C 225.69 290.78 233.52 270.67 229.37 251.03
  Q 227.56 242.48 222.91 235.26
  Q 217.82 227.36 210.32 219.58
  Q 209.84 219.08 209.84 218.39"
/>
<path stroke="#8fa1b1" vector-effect="non-scaling-stroke" d="
  M 157.62 226.68
  Q 145.30 234.25 140.41 247.40
  Q 135.82 259.74 138.95 271.65
  Q 144.87 294.17 168.15 301.70
  Q 170.08 302.32 172.04 302.40
  C 175.11 302.52 177.84 303.41 180.91 302.96
  C 184.02 302.50 187.00 302.43 190.06 301.45
  Q 210.99 294.78 217.97 274.38
  C 220.01 268.42 220.40 261.09 219.27 254.92
  Q 215.88 236.37 199.71 226.47
  Q 199.30 226.21 199.30 225.73
  Q 199.28 194.42 199.33 161.16
  Q 199.33 155.01 197.94 151.32
  Q 195.85 145.81 190.62 142.05
  Q 183.39 136.85 173.63 139.01
  C 164.82 140.96 158.36 149.73 158.35 158.80
  Q 158.29 191.36 158.37 225.34
  Q 158.37 226.22 157.62 226.68"
/>
</g>
<path fill="#1e4262" d="
  M 0.00 0.00
  L 359.00 0.00
  L 359.00 355.00
  L 0.00 355.00
  L 0.00 0.00
  Z
  M 240.46 206.60
  Q 240.39 148.50 240.53 84.37
  Q 240.56 71.41 239.57 65.55
  Q 236.87 49.50 225.75 36.19
  Q 214.37 22.58 196.39 16.97
  Q 191.07 15.30 185.76 15.07
  Q 177.11 14.68 168.39 15.31
  Q 166.03 15.48 163.80 16.21
  C 159.97 17.47 156.13 18.49 152.51 20.28
  C 135.16 28.84 122.30 44.52 118.45 63.64
  Q 117.10 70.32 117.10 77.13
  Q 117.08 142.11 117.10 206.48
  Q 117.10 207.29 116.55 207.94
  Q 98.39 229.67 96.78 257.17
  Q 95.62 276.80 103.29 294.24
  Q 108.39 305.83 116.07 314.87
  Q 131.82 333.40 154.38 340.46
  Q 163.96 343.46 174.81 344.10
  Q 197.47 345.44 219.07 333.69
  Q 227.20 329.27 234.41 322.51
  Q 260.07 298.45 261.16 262.64
  Q 261.23 260.24 260.98 258.03
  C 260.47 253.57 260.30 249.13 259.36 244.74
  Q 255.06 224.51 240.91 207.80
  Q 240.46 207.28 240.46 206.60
  Z"
/>
<path fill="#ffffff" d="
  M 240.91 207.80
  Q 255.06 224.51 259.36 244.74
  C 260.30 249.13 260.47 253.57 260.98 258.03
  Q 261.23 260.24 261.16 262.64
  Q 260.07 298.45 234.41 322.51
  Q 227.20 329.27 219.07 333.69
  Q 197.47 345.44 174.81 344.10
  Q 163.96 343.46 154.38 340.46
  Q 131.82 333.40 116.07 314.87
  Q 108.39 305.83 103.29 294.24
  Q 95.62 276.80 96.78 257.17
  Q 98.39 229.67 116.55 207.94
  Q 117.10 207.29 117.10 206.48
  Q 117.08 142.11 117.10 77.13
  Q 117.10 70.32 118.45 63.64
  C 122.30 44.52 135.16 28.84 152.51 20.28
  C 156.13 18.49 159.97 17.47 163.80 16.21
  Q 166.03 15.48 168.39 15.31
  Q 177.11 14.68 185.76 15.07
  Q 191.07 15.30 196.39 16.97
  Q 214.37 22.58 225.75 36.19
  Q 236.87 49.50 239.57 65.55
  Q 240.56 71.41 240.53 84.37
  Q 240.39 148.50 240.46 206.60
  Q 240.46 207.28 240.91 207.80
  Z
  M 209.84 218.39
  Q 209.68 150.37 209.76 78.75
  Q 209.77 72.22 209.29 70.27
  Q 205.41 54.27 190.94 47.73
  Q 181.53 43.48 170.73 46.30
  Q 161.54 48.70 155.01 56.59
  Q 147.77 65.35 147.76 77.56
  Q 147.73 148.82 147.76 218.48
  Q 147.76 219.00 147.41 219.38
  Q 143.77 223.37 140.24 227.62
  Q 129.30 240.79 127.63 255.65
  Q 126.09 269.36 130.82 280.73
  C 138.40 298.98 154.64 311.61 174.31 313.29
  Q 194.30 315.00 210.19 302.74
  C 225.69 290.78 233.52 270.67 229.37 251.03
  Q 227.56 242.48 222.91 235.26
  Q 217.82 227.36 210.32 219.58
  Q 209.84 219.08 209.84 218.39
  Z"
/>
<path fill="#1e4262" d="
  M 210.32 219.58
  Q 217.82 227.36 222.91 235.26
  Q 227.56 242.48 229.37 251.03
  C 233.52 270.67 225.69 290.78 210.19 302.74
  Q 194.30 315.00 174.31 313.29
  C 154.64 311.61 138.40 298.98 130.82 280.73
  Q 126.09 269.36 127.63 255.65
  Q 129.30 240.79 140.24 227.62
  Q 143.77 223.37 147.41 219.38
  Q 147.76 219.00 147.76 218.48
  Q 147.73 148.82 147.76 77.56
  Q 147.77 65.35 155.01 56.59
  Q 161.54 48.70 170.73 46.30
  Q 181.53 43.48 190.94 47.73
  Q 205.41 54.27 209.29 70.27
  Q 209.77 72.22 209.76 78.75
  Q 209.68 150.37 209.84 218.39
  Q 209.84 219.08 210.32 219.58
  Z
  M 157.62 226.68
  Q 145.30 234.25 140.41 247.40
  Q 135.82 259.74 138.95 271.65
  Q 144.87 294.17 168.15 301.70
  Q 170.08 302.32 172.04 302.40
  C 175.11 302.52 177.84 303.41 180.91 302.96
  C 184.02 302.50 187.00 302.43 190.06 301.45
  Q 210.99 294.78 217.97 274.38
  C 220.01 268.42 220.40 261.09 219.27 254.92
  Q 215.88 236.37 199.71 226.47
  Q 199.30 226.21 199.30 225.73
  Q 199.28 194.42 199.33 161.16
  Q 199.33 155.01 197.94 151.32
  Q 195.85 145.81 190.62 142.05
  Q 183.39 136.85 173.63 139.01
  C 164.82 140.96 158.36 149.73 158.35 158.80
  Q 158.29 191.36 158.37 225.34
  Q 158.37 226.22 157.62 226.68
  Z"
/>
<path fill="#ffffff" d="
  M 158.37 225.34
  Q 158.29 191.36 158.35 158.80
  C 158.36 149.73 164.82 140.96 173.63 139.01
  Q 183.39 136.85 190.62 142.05
  Q 195.85 145.81 197.94 151.32
  Q 199.33 155.01 199.33 161.16
  Q 199.28 194.42 199.30 225.73
  Q 199.30 226.21 199.71 226.47
  Q 215.88 236.37 219.27 254.92
  C 220.40 261.09 220.01 268.42 217.97 274.38
  Q 210.99 294.78 190.06 301.45
  C 187.00 302.43 184.02 302.50 180.91 302.96
  C 177.84 303.41 175.11 302.52 172.04 302.40
  Q 170.08 302.32 168.15 301.70
  Q 144.87 294.17 138.95 271.65
  Q 135.82 259.74 140.41 247.40
  Q 145.30 234.25 157.62 226.68
  Q 158.37 226.22 158.37 225.34
  Z"
/>
</svg>
