<?xml version="1.0" encoding="UTF-8" standalone="no"?>
<!DOCTYPE svg PUBLIC "-//W3C//DTD SVG 1.1//EN" "http://www.w3.org/Graphics/SVG/1.1/DTD/svg11.dtd">
<svg xmlns="http://www.w3.org/2000/svg" version="1.1" viewBox="0.00 0.00 88.00 64.00">
<path fill="#ffffff" d="
  M 18.73 27.55
  Q 18.76 19.65 18.66 12.22
  Q 18.59 7.52 22.95 5.17
  Q 25.50 3.79 28.03 5.04
  C 31.11 6.57 32.73 8.95 32.70 12.32
  Q 32.64 20.34 32.65 27.56
  Q 32.65 28.02 32.95 28.38
  Q 39.54 36.47 32.82 43.53
  Q 30.49 45.97 26.52 46.34
  C 16.75 47.26 11.53 35.69 18.28 28.67
  Q 18.73 28.20 18.73 27.55
  Z
  M 22.12 11.81
  L 21.97 29.27
  Q 21.97 29.79 21.62 30.17
  C 20.91 30.93 20.14 31.50 19.62 32.43
  C 15.82 39.26 24.11 46.41 29.98 41.35
  Q 34.78 37.22 31.35 31.99
  C 30.86 31.24 30.13 30.73 29.55 30.07
  Q 29.19 29.65 29.19 29.09
  L 29.23 12.25
  Q 29.24 8.91 25.98 8.19
  Q 25.38 8.06 24.80 8.24
  Q 22.15 9.03 22.12 11.81
  Z"
/>
<path fill="#ffffff" d="
  M 0.00 50.85
  L 0.00 18.31
  Q 1.59 15.03 3.61 15.09
  Q 9.92 15.27 15.78 15.21
  A 0.59 0.58 89.5 0 1 16.37 15.80
  L 16.38 17.19
  Q 16.38 17.75 15.82 17.75
  L 3.99 17.75
  A 1.26 1.25 90.0 0 0 2.74 19.01
  L 2.75 50.56
  A 0.91 0.90 -90.0 0 0 3.65 51.47
  L 8.92 51.51
  Q 9.51 51.52 9.68 50.95
  C 11.59 44.70 20.53 44.53 22.18 51.01
  A 0.65 0.64 -6.8 0 0 22.81 51.50
  L 44.49 51.50
  A 0.75 0.74 10.1 0 0 45.19 51.02
  C 47.65 44.53 55.62 44.60 58.07 51.04
  Q 58.27 51.56 58.83 51.53
  L 60.82 51.42
  Q 61.75 51.37 61.75 50.44
  L 61.74 43.04
  A 1.50 1.49 -68.3 0 0 61.28 41.96
  Q 59.78 40.55 57.75 39.19
  Q 56.10 38.08 53.99 38.17
  Q 50.01 38.35 46.27 38.27
  A 3.99 3.99 0.0 0 1 42.37 34.28
  L 42.36 25.35
  Q 42.36 24.81 42.90 24.81
  L 58.29 24.82
  Q 61.65 24.83 60.35 21.73
  Q 60.13 21.19 59.84 20.69
  A 5.89 5.89 0.0 0 0 54.74 17.75
  L 35.25 17.75
  A 0.38 0.37 0.7 0 1 34.87 17.37
  L 34.89 15.57
  A 0.39 0.38 0.0 0 1 35.28 15.19
  Q 43.87 15.24 52.91 15.04
  C 57.53 14.94 61.19 16.48 62.83 20.97
  C 64.07 24.35 62.33 27.81 58.54 27.56
  Q 56.25 27.42 54.12 27.54
  Q 53.54 27.58 53.81 28.09
  Q 55.46 31.26 57.05 34.50
  Q 58.13 36.69 61.27 38.55
  C 62.49 39.27 63.37 40.42 64.24 41.54
  A 1.47 1.42 28.6 0 1 64.54 42.50
  Q 64.40 45.49 64.64 48.98
  Q 64.78 51.03 63.73 52.29
  Q 61.75 54.67 58.88 54.18
  Q 58.26 54.08 58.05 54.67
  Q 57.30 56.88 55.13 58.38
  C 51.16 61.13 46.75 58.75 45.16 54.68
  Q 44.98 54.21 44.48 54.21
  L 22.98 54.22
  A 0.78 0.76 9.6 0 0 22.25 54.73
  C 21.90 55.67 21.54 56.48 20.82 57.20
  C 16.67 61.35 11.82 59.81 9.58 54.72
  Q 9.35 54.21 8.79 54.21
  C 5.26 54.23 1.74 55.11 0.00 50.85
  Z
  M 51.25 28.46
  Q 50.66 27.25 49.33 27.45
  Q 47.80 27.68 46.32 27.44
  Q 44.89 27.22 44.89 28.66
  L 44.88 34.00
  Q 44.87 35.62 46.50 35.62
  L 53.48 35.62
  Q 54.69 35.63 54.17 34.54
  L 51.25 28.46
  Z
  M 19.94 52.82
  A 4.00 4.00 0.0 0 0 15.94 48.82
  A 4.00 4.00 0.0 0 0 11.94 52.82
  A 4.00 4.00 0.0 0 0 15.94 56.82
  A 4.00 4.00 0.0 0 0 19.94 52.82
  Z
  M 55.55 52.84
  A 3.99 3.99 0.0 0 0 51.56 48.85
  A 3.99 3.99 0.0 0 0 47.57 52.84
  A 3.99 3.99 0.0 0 0 51.56 56.83
  A 3.99 3.99 0.0 0 0 55.55 52.84
  Z"
/>
<path fill="#ffffff" d="
  M 23.98 30.23
  L 23.98 18.94
  Q 23.98 18.60 24.31 18.60
  L 26.99 18.63
  A 0.35 0.35 0.0 0 1 27.34 18.99
  L 27.27 30.42
  Q 27.27 30.86 27.65 31.10
  Q 31.74 33.61 30.55 37.62
  C 29.25 42.01 22.53 42.38 20.86 38.04
  Q 19.26 33.86 23.47 31.16
  Q 23.98 30.83 23.98 30.23
  Z"
/>
</svg>
