<?xml version="1.0" encoding="UTF-8" standalone="no"?><!DOCTYPE svg PUBLIC "-//W3C//DTD SVG 1.1//EN" "http://www.w3.org/Graphics/SVG/1.1/DTD/svg11.dtd"><svg width="100%" height="100%" viewBox="0 0 998 998" version="1.1" xmlns="http://www.w3.org/2000/svg" xmlns:xlink="http://www.w3.org/1999/xlink" xml:space="preserve" xmlns:serif="http://www.serif.com/" style="fill-rule:evenodd;clip-rule:evenodd;stroke-linejoin:round;stroke-miterlimit:2;"><path d="M497.409,-0c275.241,-0 498.702,223.461 498.702,498.701c-0,275.241 -223.461,498.702 -498.702,498.702c-275.24,-0 -498.701,-223.461 -498.701,-498.702c0,-275.24 223.461,-498.701 498.701,-498.701Zm0,54.623c-245.093,-0 -444.078,198.985 -444.078,444.078c-0,245.094 198.985,444.079 444.078,444.079c245.094,-0 444.079,-198.985 444.079,-444.079c-0,-245.093 -198.985,-444.078 -444.079,-444.078Z" style="fill:#fff;"/><path d="M502.151,505.78c0,-0 -157.198,-178.741 -157.198,-255.344c-0,-86.761 70.438,-157.199 157.198,-157.199c86.761,-0 157.199,70.438 157.199,157.199c0,76.603 -157.199,255.344 -157.199,255.344Z" style="fill:#fff;"/><path d="M502.151,505.78c0,-0 -157.198,-178.741 -157.198,-255.344c-0,-86.761 70.438,-157.199 157.198,-157.199c86.761,-0 157.199,70.438 157.199,157.199c0,76.603 -157.199,255.344 -157.199,255.344Zm0,-85.599c23.991,-30.302 53.841,-70.432 76.123,-108.437c13.893,-23.695 26.453,-45.189 26.453,-61.308c0,-56.613 -45.962,-102.576 -102.576,-102.576c-56.613,-0 -102.575,45.963 -102.575,102.576c-0,16.119 12.56,37.613 26.452,61.308c22.283,38.005 52.133,78.135 76.123,108.437Z" style="fill:#fff;"/><path d="M501.203,510.322c0,-0 -76.194,225.508 -142.535,263.81c-75.136,43.38 -171.357,17.598 -214.737,-57.539c-43.38,-75.136 -17.598,-171.357 57.539,-214.737c66.34,-38.302 299.733,8.466 299.733,8.466Z" style="fill:#fff;"/><path d="M501.203,510.322c0,-0 -76.194,225.508 -142.535,263.81c-75.136,43.38 -171.357,17.598 -214.737,-57.539c-43.38,-75.136 -17.598,-171.357 57.539,-214.737c66.34,-38.302 299.733,8.466 299.733,8.466Zm-74.13,42.799c-38.237,-5.625 -87.916,-11.411 -131.971,-11.706c-27.466,-0.184 -52.361,-0.314 -66.321,7.746c-49.028,28.306 -65.852,91.092 -37.545,140.121c28.306,49.028 91.093,65.852 140.121,37.545c13.959,-8.059 26.294,-29.684 39.868,-53.563c21.772,-38.3 41.601,-84.216 55.848,-120.143Z" style="fill:#fff;"/><path d="M504.391,507.738c0,-0 233.394,-46.768 299.734,-8.466c75.137,43.38 100.919,139.601 57.539,214.737c-43.38,75.137 -139.601,100.919 -214.738,57.539c-66.34,-38.302 -142.535,-263.81 -142.535,-263.81Z" style="fill:#fff;"/><path d="M504.391,507.738c0,-0 233.394,-46.768 299.734,-8.466c75.137,43.38 100.919,139.601 57.539,214.737c-43.38,75.137 -139.601,100.919 -214.738,57.539c-66.34,-38.302 -142.535,-263.81 -142.535,-263.81Zm74.131,42.799c14.247,35.927 34.076,81.843 55.847,120.143c13.574,23.879 25.909,45.504 39.869,53.563c49.028,28.307 111.814,11.483 140.121,-37.545c28.306,-49.029 11.483,-111.815 -37.545,-140.121c-13.96,-8.06 -38.855,-7.93 -66.322,-7.746c-44.054,0.295 -93.733,6.081 -131.97,11.706Z" style="fill:#fff;"/><circle cx="498.055" cy="501.931" r="54.909" style="fill:#fff;"/><path d="M498.055,447.022c30.305,0 54.909,24.604 54.909,54.909c0,30.305 -24.604,54.909 -54.909,54.909c-30.305,0 -54.909,-24.604 -54.909,-54.909c0,-30.305 24.604,-54.909 54.909,-54.909Zm0,54.623c-0.158,0 -0.286,0.128 -0.286,0.286c0,0.158 0.128,0.286 0.286,0.286c0.158,0 0.286,-0.128 0.286,-0.286c0,-0.158 -0.128,-0.286 -0.286,-0.286Z" style="fill:#fff;"/></svg>